<svg xmlns="http://www.w3.org/2000/svg" xmlns:xlink="http://www.w3.org/1999/xlink" viewBox="0 0 993.7 522.35"><defs><linearGradient id="a" x1="75.45" y1="117.7" x2="140.76" y2="117.7" gradientTransform="matrix(1, 0, 0, -1, 0, 523)" gradientUnits="userSpaceOnUse"><stop offset="0" stop-color="#ffd119"/><stop offset="0.99" stop-color="#ff4800"/></linearGradient><linearGradient id="b" x1="82.61" y1="114.9" x2="133.61" y2="114.9" xlink:href="#a"/><linearGradient id="c" x1="84.08" y1="894.8" x2="135" y2="894.8" gradientTransform="translate(-1.39 -498.55)" gradientUnits="userSpaceOnUse"><stop offset="0" stop-color="#ffd119" stop-opacity="0.5"/><stop offset="0.49" stop-color="#ff8d0d"/><stop offset="0.99" stop-color="#ff4800" stop-opacity="0.7"/></linearGradient><linearGradient id="d" x1="97.77" y1="650.39" x2="252.37" y2="583.44" gradientTransform="translate(-1.39 -498.55)" gradientUnits="userSpaceOnUse"><stop offset="0" stop-color="#ffd119" stop-opacity="0.5"/><stop offset="0.5" stop-color="#ff8c0c"/><stop offset="0.99" stop-color="#ff4800" stop-opacity="0.7"/></linearGradient><linearGradient id="e" x1="752.84" y1="916.48" x2="877.16" y2="916.48" gradientTransform="translate(-1.39 -498.55)" xlink:href="#a"/><linearGradient id="f" x1="713.55" y1="956.45" x2="719.03" y2="956.45" gradientTransform="translate(-1.39 -498.55)" xlink:href="#a"/><linearGradient id="g" x1="730.47" y1="940.52" x2="813.3" y2="940.52" gradientTransform="translate(-1.39 -498.55)" xlink:href="#a"/><linearGradient id="h" x1="863.79" y1="955.1" x2="876.49" y2="955.1" gradientTransform="translate(-1.39 -498.55)" xlink:href="#a"/><linearGradient id="i" x1="820.77" y1="946.15" x2="831.9" y2="946.15" gradientTransform="translate(-1.39 -498.55)" xlink:href="#a"/><linearGradient id="j" x1="742.24" y1="946.2" x2="801.54" y2="946.2" gradientTransform="translate(-1.39 -498.55)" xlink:href="#a"/><linearGradient id="k" x1="728.87" y1="971.51" x2="734.37" y2="971.51" gradientTransform="translate(-1.39 -498.55)" xlink:href="#a"/><linearGradient id="l" x1="694.55" y1="946.17" x2="849.24" y2="946.17" gradientTransform="translate(-1.39 -498.55)" xlink:href="#a"/><linearGradient id="m" x1="719.42" y1="964.35" x2="724.91" y2="964.35" gradientTransform="translate(-1.39 -498.55)" xlink:href="#a"/><linearGradient id="n" x1="857.09" y1="968.15" x2="870.73" y2="968.15" gradientTransform="translate(-1.39 -498.55)" xlink:href="#a"/><linearGradient id="o" x1="666.47" y1="931.9" x2="742.89" y2="931.9" gradientTransform="translate(-1.39 -498.55)" xlink:href="#a"/><linearGradient id="p" x1="720.55" y1="946.22" x2="823.23" y2="946.22" gradientTransform="translate(-1.39 -498.55)" xlink:href="#a"/><linearGradient id="q" x1="843.8" y1="979.7" x2="861.69" y2="979.7" gradientTransform="translate(-1.39 -498.55)" xlink:href="#a"/><linearGradient id="r" x1="713.19" y1="998.23" x2="837.49" y2="998.23" gradientTransform="translate(-1.39 -498.55)" xlink:href="#a"/><linearGradient id="s" x1="50.39" y1="800.33" x2="120.91" y2="800.33" gradientTransform="translate(-1.39 -498.55)" xlink:href="#a"/><linearGradient id="t" x1="28.09" y1="823.01" x2="31.21" y2="823.01" gradientTransform="translate(-1.39 -498.55)" xlink:href="#a"/><linearGradient id="u" x1="37.71" y1="814.06" x2="84.61" y2="814.06" gradientTransform="translate(-1.39 -498.55)" xlink:href="#a"/><linearGradient id="v" x1="113.3" y1="822.3" x2="120.5" y2="822.3" gradientTransform="translate(-1.39 -498.55)" xlink:href="#a"/><linearGradient id="w" x1="88.9" y1="817.2" x2="95.21" y2="817.2" gradientTransform="translate(-1.39 -498.55)" xlink:href="#a"/><linearGradient id="x" x1="44.33" y1="817.25" x2="77.95" y2="817.25" gradientTransform="translate(-1.39 -498.55)" xlink:href="#a"/><linearGradient id="y" x1="36.78" y1="831.56" x2="39.9" y2="831.56" gradientTransform="translate(-1.39 -498.55)" xlink:href="#a"/><linearGradient id="z" x1="17.36" y1="817.16" x2="105.05" y2="817.16" gradientTransform="translate(-1.39 -498.55)" xlink:href="#a"/><linearGradient id="aa" x1="31.42" y1="827.56" x2="34.54" y2="827.56" gradientTransform="translate(-1.39 -498.55)" xlink:href="#a"/><linearGradient id="ab" x1="109.49" y1="829.6" x2="117.23" y2="829.6" gradientTransform="translate(-1.39 -498.55)" xlink:href="#a"/><linearGradient id="ac" x1="1.39" y1="809.1" x2="44.72" y2="809.1" gradientTransform="translate(-1.39 -498.55)" xlink:href="#a"/><linearGradient id="ad" x1="32.05" y1="817.21" x2="90.29" y2="817.21" gradientTransform="translate(-1.39 -498.55)" xlink:href="#a"/><linearGradient id="ae" x1="101.96" y1="836.15" x2="112.11" y2="836.15" gradientTransform="translate(-1.39 -498.55)" xlink:href="#a"/><linearGradient id="af" x1="27.89" y1="846.77" x2="98.39" y2="846.77" gradientTransform="translate(-1.39 -498.55)" xlink:href="#a"/><linearGradient id="ag" x1="772.97" y1="821.62" x2="772.97" y2="908.29" gradientTransform="translate(-1.39 -498.55)" gradientUnits="userSpaceOnUse"><stop offset="0" stop-color="#ff4800" stop-opacity="0"/><stop offset="1" stop-color="#ffd119" stop-opacity="0.57"/></linearGradient><linearGradient id="ah" x1="710.31" y1="949.25" x2="764.93" y2="946.81" gradientTransform="translate(-2.59 -497.55) rotate(-0.18)" gradientUnits="userSpaceOnUse"><stop offset="0" stop-color="#282a57" stop-opacity="0"/><stop offset="0.38" stop-color="#787a96" stop-opacity="0.37"/><stop offset="1" stop-color="#fff"/></linearGradient><linearGradient id="ai" x1="62.59" y1="600.55" x2="62.59" y2="742.74" gradientTransform="translate(-1.39 -498.55)" gradientUnits="userSpaceOnUse"><stop offset="0.48" stop-color="#ff4174" stop-opacity="0"/><stop offset="1" stop-color="#ffd119" stop-opacity="0.57"/></linearGradient><linearGradient id="aj" x1="23.47" y1="815.39" x2="57.37" y2="813.87" xlink:href="#ah"/><linearGradient id="ak" x1="294.05" y1="760.48" x2="740.1" y2="760.48" gradientTransform="translate(-1.39 -498.55)" xlink:href="#a"/><linearGradient id="al" x1="184.98" y1="807.35" x2="687.89" y2="807.35" gradientTransform="translate(-1.39 -498.55)" xlink:href="#a"/><linearGradient id="am" x1="791.06" y1="777.52" x2="887.46" y2="777.52" gradientTransform="translate(-1.39 -498.55)" xlink:href="#a"/><linearGradient id="an" x1="679.59" y1="760.71" x2="712.64" y2="760.71" gradientTransform="translate(-1.39 -498.55)" gradientUnits="userSpaceOnUse"><stop offset="0" stop-color="#a8abae"/><stop offset="0" stop-color="#d1d4d5"/><stop offset="0.12" stop-color="#89939a"/><stop offset="0.15" stop-color="#939ca2"/><stop offset="0.27" stop-color="#bdc1c4"/><stop offset="0.37" stop-color="#d7d8d9"/><stop offset="0.43" stop-color="#e1e1e1"/><stop offset="0.46" stop-color="#d6d7d7"/><stop offset="0.53" stop-color="#b8bcbd"/><stop offset="0.62" stop-color="#889193"/><stop offset="0.72" stop-color="#465658"/><stop offset="0.74" stop-color="#3f4f52"/><stop offset="0.8" stop-color="#6d7678"/><stop offset="0.89" stop-color="#abacab"/><stop offset="0.96" stop-color="#d2cdcb"/><stop offset="1" stop-color="#e1dad7"/><stop offset="1" stop-color="#e7e3e0"/></linearGradient><linearGradient id="ao" x1="712.55" y1="751.63" x2="680.39" y2="771.91" gradientTransform="translate(-1.39 -498.55)" gradientUnits="userSpaceOnUse"><stop offset="0" stop-color="#a8abae"/><stop offset="0" stop-color="#d1d4d5"/><stop offset="0.12" stop-color="#89939a"/><stop offset="0.15" stop-color="#939ca2"/><stop offset="0.27" stop-color="#bdc1c4"/><stop offset="0.37" stop-color="#d7d8d9"/><stop offset="0.43" stop-color="#e1e1e1"/><stop offset="1" stop-color="#e1dad7"/><stop offset="1" stop-color="#e7e3e0"/></linearGradient><linearGradient id="ap" x1="643.69" y1="785.48" x2="664.76" y2="785.48" xlink:href="#an"/><linearGradient id="aq" x1="665.08" y1="779.87" x2="644.4" y2="792.91" xlink:href="#ao"/><linearGradient id="ar" x1="771.03" y1="690.9" x2="719.04" y2="723.68" gradientTransform="translate(-1.39 -498.55)" gradientUnits="userSpaceOnUse"><stop offset="0" stop-color="#565656"/><stop offset="0.01" stop-color="#565656" stop-opacity="0.83"/><stop offset="0.02" stop-color="#555" stop-opacity="0.38"/><stop offset="0.03" stop-color="#555" stop-opacity="0"/><stop offset="0.21" stop-color="#4a4a4a" stop-opacity="0.32"/><stop offset="0.51" stop-color="#343434"/><stop offset="1" stop-color="#5c5c5c" stop-opacity="0"/></linearGradient><linearGradient id="as" x1="304.92" y1="931.87" x2="371.39" y2="931.87" gradientTransform="translate(-1.39 -498.55)" gradientUnits="userSpaceOnUse"><stop offset="0" stop-color="#555" stop-opacity="0"/><stop offset="0.19" stop-color="#4a4a4a" stop-opacity="0.32"/><stop offset="0.51" stop-color="#343434"/><stop offset="1" stop-color="#5c5c5c" stop-opacity="0"/></linearGradient><linearGradient id="at" x1="235.12" y1="894.3" x2="665.96" y2="612.24" xlink:href="#an"/><linearGradient id="au" x1="679.29" y1="744.6" x2="728.86" y2="604.75" gradientTransform="translate(-1.39 -498.55)" gradientUnits="userSpaceOnUse"><stop offset="0" stop-color="#a8abae"/><stop offset="1" stop-color="#eff4ff"/></linearGradient><linearGradient id="av" x1="118.59" y1="757.9" x2="768.49" y2="757.9" xlink:href="#an"/><linearGradient id="aw" x1="197.21" y1="897.18" x2="864.16" y2="521.27" gradientTransform="translate(-1.39 -498.55)" xlink:href="#a"/><linearGradient id="ax" x1="654.39" y1="632.31" x2="654.39" y2="636.23" gradientTransform="translate(-1.39 -498.55)" gradientUnits="userSpaceOnUse"><stop offset="0" stop-color="#343434"/><stop offset="1" stop-color="#5c5c5c"/></linearGradient><linearGradient id="ay" x1="679.29" y1="647.85" x2="685.57" y2="647.85" xlink:href="#ax"/><linearGradient id="az" x1="171.17" y1="1142.36" x2="439.87" y2="1142.36" gradientTransform="translate(-333.65 -447.51) rotate(-31.46)" gradientUnits="userSpaceOnUse"><stop offset="0" stop-color="#555" stop-opacity="0"/><stop offset="0.14" stop-color="#535353" stop-opacity="0.22"/><stop offset="0.42" stop-color="#4e4e4e" stop-opacity="0.79"/><stop offset="0.51" stop-color="#4c4c4c"/><stop offset="1" stop-color="#5c5c5c" stop-opacity="0"/></linearGradient><linearGradient id="ba" x1="118.09" y1="791.7" x2="439.03" y2="791.7" gradientTransform="translate(-1.39 -498.55)" gradientUnits="userSpaceOnUse"><stop offset="0" stop-color="#ffd119" stop-opacity="0.5"/><stop offset="0.52" stop-color="#ff810a"/><stop offset="0.99" stop-color="#ff4800" stop-opacity="0.7"/></linearGradient><linearGradient id="bb" x1="263.68" y1="692.3" x2="492.5" y2="692.3" xlink:href="#ba"/><linearGradient id="bc" x1="528.59" y1="955.77" x2="528.59" y2="1004.55" gradientTransform="translate(-1.39 -498.55)" xlink:href="#a"/><linearGradient id="bd" x1="528.74" y1="904.45" x2="528.74" y2="998.37" gradientTransform="translate(-1.39 -498.55)" xlink:href="#a"/><linearGradient id="be" x1="568.99" y1="935.78" x2="480.26" y2="990.3" xlink:href="#d"/><linearGradient id="bf" x1="583.79" y1="588.05" x2="801.79" y2="588.05" gradientTransform="translate(-1.39 -498.55)" xlink:href="#a"/><linearGradient id="bg" x1="582.99" y1="579.2" x2="769.69" y2="579.2" xlink:href="#d"/><radialGradient id="bh" cx="774.53" cy="359.25" r="7.05" gradientTransform="matrix(1, 0, 0, -1, 0, 523)" gradientUnits="userSpaceOnUse"><stop offset="0" stop-color="#ffd119"/><stop offset="1" stop-color="#ff4800"/></radialGradient><radialGradient id="bi" cx="413.45" cy="595.19" r="4.93" gradientTransform="translate(-1.39 -498.55)" xlink:href="#bh"/></defs><title>main-banner</title><g opacity="0.25"><path d="M131.1,391.9c12.8,7.4,12.9,19.4.1,26.8s-33.4,7.4-46.2,0-12.9-19.4-.2-26.8S118.3,384.5,131.1,391.9Z" transform="translate(0.1)" fill="url(#a)"/></g><path d="M133.6,396.7v.7l-.1.4a.37.37,0,0,1-.1.3l-.1.4c0,.1-.1.2-.1.3l-.1.4c0,.1-.1.2-.1.3s-.1.3-.2.4l-.1.3c-.1.1-.1.3-.2.4s-.1.2-.2.3a2.19,2.19,0,0,0-.3.5l-.2.3-.4.5c-.1.1-.1.2-.2.2a5,5,0,0,1-.7.8l-.2.2-.6.6-.3.3-.4.3-.4.3-.4.3-.4.3-.4.3-.4.3-.5.3c-.2.1-.4.3-.6.4l-1.2.6-.3.2a9.29,9.29,0,0,1-1,.5l-.3.1a5,5,0,0,1-1.3.5l-.2.1c-.4.1-.7.3-1.1.4l-.5.2-.6.2-.5.2-.6.2-.5.1-.7.2-.5.1-.7.1-.5.1a7.84,7.84,0,0,1-1.4.2h-.2l-1.3.2H112l-.8.1h-6.6l-1-.1h-.3l-1.2-.2h-.2l-1-.2-.4-.1-.8-.2-.4-.1-.9-.2-.5-.1-.8-.2-.4-.1a5.64,5.64,0,0,1-1.2-.4l-.2-.1c-.5-.2-.9-.3-1.3-.5l-.3-.1c-.6-.2-1.1-.5-1.7-.7l-.2-.1c-.6-.3-1.1-.6-1.7-.9-5-2.9-7.5-6.7-7.5-10.5l-.1,8.7c0,3.8,2.5,7.6,7.5,10.5.5.3,1.1.6,1.7.9l.2.1a12.2,12.2,0,0,0,1.7.7l.2.1h.1c.4.2.9.3,1.3.5l.2.1,1.2.4.2.1.2.1.8.2.5.1.8.2.3.1h.1l.8.1.4.1,1,.2h.2c.4.1.8.1,1.2.2h.3l1,.1h.4l.8.1H111l.8-.1h.5l1.3-.2h.2l1.4-.2h.1l.4-.1.7-.1.5-.1.7-.2.5-.1.6-.2.5-.2.6-.2.3-.1.2-.1c.4-.1.7-.3,1.1-.4l.2-.1c.4-.2.9-.3,1.3-.5l.3-.2.9-.4.3-.2,1.2-.6.3-.2.3-.2.5-.3c.1-.1.3-.2.4-.3l.4-.3.4-.3.4-.3.4-.3.4-.3.1-.1.1-.1.6-.6.2-.2a5,5,0,0,1,.7-.8h0l.1-.2c.1-.2.3-.3.4-.5l.2-.3.3-.5.1-.1c0-.1.1-.1.1-.2s.1-.3.2-.4l.1-.3.2-.4c0-.1.1-.1.1-.2s0-.1.1-.2.1-.2.1-.4.1-.2.1-.3.1-.2.1-.4v-.3a.6.6,0,0,1,.1-.4.37.37,0,0,1,.1-.3c.1-.1,0-.3,0-.4v-.4l.1-8.7C133.6,396.5,133.6,396.6,133.6,396.7Z" transform="translate(0.1)" opacity="0.25" fill="url(#b)" style="isolation:isolate"/><path d="M126.1,385.8c10,5.8,10,15.1.1,20.9s-26,5.8-36,0-10-15.1-.1-20.9S116.1,380,126.1,385.8Z" transform="translate(0.1)" fill="url(#c)"/><path d="M120.7,393c3,1.7,3.5,4.5-.1,7.5l3.1,1.8-3.9,2.3-3-1.7a29.52,29.52,0,0,1-9.1,3l-2.7-4a24,24,0,0,0,8.2-2.7c1.9-1.1,2.1-1.7,1.5-2.1-2.5-1.4-11.2,6-18.5,1.8-3.2-1.8-3.5-4.7.4-7.7l-3-1.8,3.9-2.3,3,1.7a25.91,25.91,0,0,1,7.3-2.3l2.8,3.9a24.38,24.38,0,0,0-6.9,2.3c-1.9,1.1-2,1.8-1.3,2.2C104.7,396.3,113.5,388.9,120.7,393Z" transform="translate(0.1)" fill="#fff"/><path d="M220.6,96.8V80.3c0-3.8-2.7-5.3-6-3.4L124,129.2a13.15,13.15,0,0,0-6,10.3V156c0,6.4,4.6,9,10.1,5.8L158,144.6l21.4-12.4,31.1-18a15.26,15.26,0,0,0,1.6-1.1l6.8,3.9a.62.62,0,0,0,.7-.1,2.23,2.23,0,0,0,1-1.8Zm-70.4,25.1a8.58,8.58,0,0,0-2.3,5.9,8.14,8.14,0,0,1,2.3-5.9Zm5.5-.6a2.1,2.1,0,0,0-.8-1.1,1.88,1.88,0,0,1,.8,1.1,6.45,6.45,0,0,1,.3,2,12,12,0,0,0-.3-2Zm18.5-12a4.87,4.87,0,0,0,.4-1.1,7.6,7.6,0,0,1-.4,1.1,4.18,4.18,0,0,1-1.1,1.5,3.27,3.27,0,0,0,1.1-1.5Z" transform="translate(0.1)" fill="url(#d)"/><g opacity="0.63"><path d="M844.8,404.5c21.3,12.3,31.7,28.5,31.1,44.7l-12.2-7c-2.2-12-11.2-23.6-27.1-32.8-20.5-11.8-48-17-74.6-15.7l-10.4-6C784.2,384.1,819.3,389.8,844.8,404.5Z" transform="translate(0.1)" fill="url(#e)"/><path d="M716.8,456.8a1.11,1.11,0,0,1,.7,1.5,1.21,1.21,0,0,1-.7.7,4.45,4.45,0,0,1-3.9,0,1.11,1.11,0,0,1-.7-1.5,1.21,1.21,0,0,1,.7-.7A4.45,4.45,0,0,1,716.8,456.8Z" transform="translate(0.1)" fill="url(#f)"/><path d="M799.6,430.7c13.9,8,16,20.4,6,29.6l-3.4-1.9c8.2-8.2,6.2-18.8-5.9-25.8-14.4-8.3-37.7-8.3-52,0-11.1,6.5-13.5,16-7.3,23.9l-3.5,2c-7.9-9-5.4-20.3,7.5-27.8C757.2,421.3,783.4,421.3,799.6,430.7Z" transform="translate(0.1)" fill="url(#g)"/><path d="M875.1,455.4a37.89,37.89,0,0,1-2.9,8.6l-9.8-5.6a36.48,36.48,0,0,0,1.8-9.3Z" transform="translate(0.1)" fill="url(#h)"/><path d="M820.6,428.6c13.1,11.5,13.2,26.5.3,38l-1.3-.7c12.3-11.1,12.2-25.5-.3-36.5Z" transform="translate(0.1)" fill="url(#i)"/><path d="M791.4,435.5c11.6,6.7,11.7,17.6.1,24.3s-30.3,6.7-41.9,0-11.7-17.6-.1-24.3S779.8,428.8,791.4,435.5Zm-39.5,23c10.3,6,27,6,37.3,0s10.2-15.6-.1-21.6-27-6-37.3,0-10.2,15.6.1,21.6" transform="translate(0.1)" fill="url(#j)"/><path d="M732.2,471.8c1.1.6,1.1,1.6,0,2.3a4.45,4.45,0,0,1-3.9,0,1.11,1.11,0,0,1-.7-1.5,1.21,1.21,0,0,1,.7-.7A4.14,4.14,0,0,1,732.2,471.8Z" transform="translate(0.1)" fill="url(#k)"/><path d="M825,415.9c30.3,17.5,30.5,45.9.4,63.4s-79.1,17.5-109.4,0-30.5-45.9-.3-63.4S794.7,398.5,825,415.9ZM722,475.8c26.9,15.5,70.5,15.5,97.3,0s26.6-40.8-.3-56.3-70.5-15.5-97.3,0-26.6,40.7.3,56.3" transform="translate(0.1)" fill="url(#l)"/><path d="M722.7,464.7a1.11,1.11,0,0,1,.7,1.5,1.21,1.21,0,0,1-.7.7,4.45,4.45,0,0,1-3.9,0,1.11,1.11,0,0,1-.7-1.5,1.21,1.21,0,0,1,.7-.7A4.45,4.45,0,0,1,722.7,464.7Z" transform="translate(0.1)" fill="url(#m)"/><path d="M869.3,469.1a50.87,50.87,0,0,1-4.8,6.4l-8.8-5.1a43,43,0,0,0,4.4-6.7Z" transform="translate(0.1)" fill="url(#n)"/><path d="M741.5,396A117.59,117.59,0,0,0,704,409.3c-28.7,16.7-34.7,41.5-18.1,61.6l-8.7,5.1c-20.9-23-14.8-52.1,18.5-71.5a129.66,129.66,0,0,1,36.6-13.8Z" transform="translate(0.1)" fill="url(#o)"/><path d="M806.7,426.6c20.1,11.6,20.2,30.4.2,42.1s-52.5,11.6-72.6,0-20.2-30.5-.2-42.1S786.6,415,806.7,426.6ZM735.3,468c19.5,11.3,51.1,11.3,70.5,0s19.3-29.6-.3-40.8-51.1-11.3-70.5,0-19.2,29.6.3,40.8" transform="translate(0.1)" fill="url(#p)"/><path d="M860.3,479.8a85.49,85.49,0,0,1-9.5,7.6l-8.3-4.8a69.16,69.16,0,0,0,9.3-7.7Z" transform="translate(0.1)" fill="url(#q)"/><path d="M836.1,495.5c-36,16.6-86.5,17.5-124.3,2.7l8.4-4.9c33,12.2,76.1,11.3,107.5-2.6Z" transform="translate(0.1)" fill="url(#r)"/></g><g opacity="0.63"><path d="M101.9,294.2c12.1,7,18,16.2,17.6,25.3l-6.9-4c-1.2-6.8-6.4-13.4-15.4-18.6-11.6-6.7-27.2-9.7-42.3-8.9L49,284.6C67.6,282.7,87.5,285.9,101.9,294.2Z" transform="translate(0.1)" fill="url(#s)"/><path d="M29.4,323.9a.6.6,0,0,1,.4.8c-.1.2-.2.4-.4.4a2.8,2.8,0,0,1-2.2,0,.6.6,0,0,1-.4-.8c.1-.2.2-.4.4-.4A2.16,2.16,0,0,1,29.4,323.9Z" transform="translate(0.1)" fill="url(#t)"/><path d="M76.3,309.1c7.9,4.6,9,11.5,3.4,16.8l-1.9-1.1c4.6-4.6,3.5-10.7-3.3-14.6-8.2-4.7-21.4-4.7-29.5,0-6.3,3.7-7.7,9.1-4.2,13.6l-2,1.1c-4.5-5.1-3.1-11.5,4.3-15.8C52.3,303.8,67.1,303.8,76.3,309.1Z" transform="translate(0.1)" fill="url(#u)"/><path d="M119.1,323.1a21.91,21.91,0,0,1-1.7,4.9l-5.5-3.2a19.11,19.11,0,0,0,1-5.3Z" transform="translate(0.1)" fill="url(#v)"/><path d="M88.2,307.9c7.4,6.5,7.5,15,.2,21.5l-.7-.4c7-6.3,6.9-14.4-.2-20.7Z" transform="translate(0.1)" fill="url(#w)"/><path d="M71.6,311.8c6.6,3.8,6.6,10,.1,13.8s-17.2,3.8-23.8,0-6.6-10-.1-13.8S65,308,71.6,311.8Zm-22.4,13c5.8,3.4,15.3,3.4,21.1,0s5.8-8.9-.1-12.2-15.3-3.4-21.1,0-5.7,8.8.1,12.2" transform="translate(0.1)" fill="url(#x)"/><path d="M38,332.4c.4.1.5.5.4.9a.78.78,0,0,1-.4.4,2.8,2.8,0,0,1-2.2,0c-.4-.1-.5-.5-.4-.9a.78.78,0,0,1,.4-.4A2.16,2.16,0,0,1,38,332.4Z" transform="translate(0.1)" fill="url(#y)"/><path d="M90.7,300.7c17.2,9.9,17.3,26,.2,35.9s-44.9,9.9-62,0-17.3-26-.2-36S73.5,290.8,90.7,300.7Zm-58.4,34c15.3,8.8,40,8.8,55.2,0s15.1-23.1-.2-32-40-8.8-55.2,0-15.1,23.1.2,32" transform="translate(0.1)" fill="url(#z)"/><path d="M32.7,328.4c.6.4.6.9,0,1.3a2.8,2.8,0,0,1-2.2,0c-.4-.1-.5-.5-.4-.9a.78.78,0,0,1,.4-.4A2.17,2.17,0,0,1,32.7,328.4Z" transform="translate(0.1)" fill="url(#aa)"/><path d="M115.8,330.8a19.35,19.35,0,0,1-2.8,3.6l-5-2.9a25,25,0,0,0,2.5-3.8Z" transform="translate(0.1)" fill="url(#ab)"/><path d="M43.3,289.4A67.67,67.67,0,0,0,22,296.9c-16.3,9.5-19.7,23.5-10.3,34.9l-4.9,2.9c-11.9-13.1-8.4-29.6,10.5-40.5A71.18,71.18,0,0,1,38,286.4Z" transform="translate(0.1)" fill="url(#ac)"/><path d="M80.3,306.8c11.4,6.6,11.5,17.3.1,23.8s-29.8,6.6-41.2,0-11.5-17.3-.1-23.9S68.9,300.2,80.3,306.8ZM39.9,330.3c11.1,6.4,29,6.4,40,0s11-16.8-.1-23.2-29-6.4-40,0-11,16.8.1,23.2" transform="translate(0.1)" fill="url(#ad)"/><path d="M110.7,336.9a44.28,44.28,0,0,1-5.4,4.3l-4.7-2.8a37.52,37.52,0,0,0,5.3-4.4Z" transform="translate(0.1)" fill="url(#ae)"/><path d="M97,345.9c-20.4,9.4-49.1,9.9-70.5,1.5l4.8-2.8c18.7,6.9,43.2,6.4,60.9-1.5Z" transform="translate(0.1)" fill="url(#af)"/></g><path d="M807.7,447.5a11.48,11.48,0,0,0,0-3.7V315.5H735.3v132h.2c1.7,9.5,17.3,16.8,36.2,16.8s34.1-7.5,36-16.8Z" transform="translate(0.1)" fill="url(#ag)"/><path d="M771.6,428c20-.1,36.3,8.2,36.3,18.4s-16.2,18.6-36.2,18.7-36.3-8.2-36.3-18.4S751.5,428.1,771.6,428Z" transform="translate(0.1)" opacity="0.57" fill="url(#ah)" style="isolation:isolate"/><path d="M83.6,306.1c.1-1,.1-2.1.1-3.1s0-2-.1-3V89.5H38.7V306.1h.1c1,15.5,10.7,27.6,22.4,27.5S82.5,321.5,83.6,306.1Z" transform="translate(0.1)" fill="url(#ai)"/><path d="M61,297.4c12.4-.1,22.6,8,22.7,18.3s-9.9,18.7-22.3,18.8-22.6-8-22.7-18.3S48.6,297.6,61,297.4Z" transform="translate(0.1)" opacity="0.57" fill="url(#aj)" style="isolation:isolate"/><path d="M432.5,477.2c-90.4,0-175.4-17.9-239.5-50.4C128.1,393.9,92.3,349.9,92.2,302.9s35.4-91.2,100.1-124.6c64.4-33.2,150.1-51.6,241.3-51.8h2.1c90.4,0,175.4,17.9,239.5,50.4C740,209.8,775.8,253.8,776,300.8S740.6,392,675.9,425.3c-64.4,33.1-150.1,51.6-241.3,51.9Zm3.1-348.4h-2.1c-90.8.3-176.1,18.6-240.2,51.6-63.8,32.9-98.9,76.3-98.8,122.4S130,392.2,194,424.7c64.3,32.6,149.8,50.4,240.6,50.1s176.2-18.6,240.2-51.6c63.8-32.9,98.9-76.4,98.8-122.4S738.1,211.4,674,179C610.3,146.6,525.6,128.8,435.6,128.8Z" transform="translate(0.1)" fill="#fff" opacity="0.57" style="isolation:isolate"/><path d="M432.3,492.3c-98.2,0-190.5-19.4-260.2-54.8C101.6,401.8,62.8,354,62.6,302.9S101,203.8,171.3,167.6c70-36,163.1-56.1,262.1-56.4h2.3c98.2,0,190.5,19.4,260.2,54.8,70.5,35.8,109.4,83.6,109.5,134.6s-38.5,99.1-108.7,135.3c-70,36-163.1,56.1-262.1,56.4Zm3.4-378.4h-2.3c-98.7.3-191.3,20.2-261,56.1C103.1,205.7,65,252.9,65.2,303s38.5,97,108.1,132.3c69.8,35.4,162.8,54.7,261.3,54.5s191.4-20.3,261-56.1c69.3-35.7,107.4-82.9,107.3-133s-38.5-97-108.1-132.3c-69.3-35.2-161.3-54.5-259.1-54.5Z" transform="translate(0.1)" fill="#fff" opacity="0.57" style="isolation:isolate"/><path d="M625,361.6h0c-4.9-2.8-12.7-2.9-17.6-.1-3,1.7-4.2,4.1-3.5,6.3h0l.1.2.2.4a.1.1,0,0,0,.1.1c.1.1.1.3.2.4l.1.1c.1.2.2.3.3.5h0c.1.2.3.3.4.5h0a8.47,8.47,0,0,0,1.9,1.4l.1.1.1.1a8.18,8.18,0,0,0,1.9.9h.5l1.1.3h0l.2.1.6.2-.6-.1.8.2h0l.3.1.3.1h-.3l.8.1h-.2l.4.1h.2l1.1.1h.1a19.27,19.27,0,0,0,10.3-2C629.8,369,629.9,364.5,625,361.6Z" transform="translate(0.1)" fill="#fff" opacity="0.57" style="isolation:isolate"/><path d="M701,213.5c-1.2-1.2-2.5-2.4-3.7-3.6C698.5,211.1,699.8,212.3,701,213.5Z" transform="translate(0.1)" fill="#ddd"/><path d="M703.5,216.1c-.8-.9-1.7-1.7-2.5-2.6C701.9,214.4,702.7,215.2,703.5,216.1Z" transform="translate(0.1)" fill="#ddd"/><path d="M706.8,219.6c-1.1-1.2-2.2-2.4-3.3-3.5C704.6,217.2,705.7,218.4,706.8,219.6Z" transform="translate(0.1)" fill="#818181"/><path d="M709.1,222.2c-.8-.9-1.5-1.8-2.3-2.6A28.48,28.48,0,0,1,709.1,222.2Z" transform="translate(0.1)" fill="#818181"/><path d="M563.9,144.7c1,.2,2,.5,3.1.7C566,145.2,564.9,144.9,563.9,144.7Z" transform="translate(0.1)" fill="#ddd"/><path d="M535.1,139l3.8.6Z" transform="translate(0.1)" fill="#ddd"/><path d="M518.9,136.7l6.7.9Z" transform="translate(0.1)" fill="#ddd"/><path d="M516,136.3l2.9.4Z" transform="translate(0.1)" fill="#818181"/><path d="M496.8,134.4l7.4.6C501.7,134.9,499.2,134.7,496.8,134.4Z" transform="translate(0.1)" fill="#ddd"/><path d="M493.1,134.2l3.7.3Z" transform="translate(0.1)" fill="#818181"/><path d="M487,133.8c2,.1,4,.2,6,.4C491.1,134.1,489.1,133.9,487,133.8Z" transform="translate(0.1)" fill="#ddd"/><path d="M483,133.6c1.4.1,2.7.1,4,.2C485.7,133.7,484.3,133.7,483,133.6Z" transform="translate(0.1)" fill="#ddd"/><path d="M473.1,133.3c1.4,0,2.8.1,4.2.1C475.9,133.3,474.5,133.3,473.1,133.3Z" transform="translate(0.1)" fill="#818181"/><path d="M467.5,133.1l5.6.1C471.2,133.2,469.4,133.2,467.5,133.1Z" transform="translate(0.1)" fill="#ddd"/><path d="M463.3,133.1h0Z" transform="translate(0.1)" fill="#ddd"/><path d="M446.9,133.3c2.2-.1,4.4-.1,6.5-.1C451.3,133.2,449.1,133.2,446.9,133.3Z" transform="translate(0.1)" fill="#ddd"/><path d="M420.3,134.7l4.4-.4Z" transform="translate(0.1)" fill="#818181"/><path d="M410.5,135.7c1.5-.2,3-.3,4.5-.5C413.5,135.3,412,135.5,410.5,135.7Z" transform="translate(0.1)" fill="#ddd"/><path d="M400.9,136.8c1.5-.2,3-.4,4.6-.5C403.9,136.4,402.4,136.6,400.9,136.8Z" transform="translate(0.1)" fill="#818181"/><path d="M391.4,138.1l4.5-.6Q393.5,137.8,391.4,138.1Z" transform="translate(0.1)" fill="#ddd"/><path d="M386.2,138.9c1.7-.3,3.4-.5,5.1-.8C389.6,138.3,387.9,138.6,386.2,138.9Z" transform="translate(0.1)" fill="#818181"/><path d="M363.8,143.1l5.7-1.2Z" transform="translate(0.1)" fill="#ddd"/><path d="M341,148.6c1.5-.4,3-.8,4.6-1.2C344,147.8,342.5,148.2,341,148.6Z" transform="translate(0.1)" fill="#ddd"/><path d="M303.1,161.4c2.2-.9,4.3-1.7,6.5-2.5C307.4,159.7,305.3,160.4,303.1,161.4Z" transform="translate(0.1)" fill="#818181"/><path d="M298.9,163.1c1.4-.6,2.8-1.1,4.2-1.7-1.5.6-2.9,1.2-4.4,1.8Z" transform="translate(0.1)" fill="#ddd"/><path d="M504.2,135.1l2.2.2Z" transform="translate(0.1)" fill="#818181"/><path d="M506.4,135.3c3.2.3,6.4.6,9.5,1C512.8,136,509.6,135.6,506.4,135.3Z" transform="translate(0.1)" fill="#ddd"/><path d="M544.6,140.7l3.8.7Z" transform="translate(0.1)" fill="#ddd"/><path d="M359.3,144.1c1.5-.3,3-.7,4.5-1C362.3,143.4,360.8,143.7,359.3,144.1Z" transform="translate(0.1)" fill="#818181"/><path d="M354.6,145.1c1.5-.4,3.1-.7,4.7-1.1C357.7,144.4,356.1,144.8,354.6,145.1Z" transform="translate(0.1)" fill="#818181"/><path d="M336.6,149.9l4.4-1.3Z" transform="translate(0.1)" fill="#ddd"/><path d="M327.8,152.6l4.3-1.3Z" transform="translate(0.1)" fill="#818181"/><path d="M319,155.4c1.5-.5,2.9-1,4.4-1.5C321.9,154.4,320.4,155,319,155.4Z" transform="translate(0.1)" fill="#818181"/><path d="M314.8,156.9l4.2-1.5C317.6,155.9,316.1,156.4,314.8,156.9Z" transform="translate(0.1)" fill="#818181"/><path d="M712.1,225.8l-3-3.6Z" transform="translate(0.1)" fill="#ddd"/><path d="M717,232.1l-2.7-3.6Z" transform="translate(0.1)" fill="#ddd"/><path d="M730.7,256.6c-.3-.8-.7-1.7-1-2.5A18.61,18.61,0,0,1,730.7,256.6Z" transform="translate(0.1)" fill="#818181"/><path d="M732.3,260.6c-.5-1.4-1.1-2.7-1.6-4.1C731.3,257.9,731.8,259.3,732.3,260.6Z" transform="translate(0.1)" fill="#ddd"/><path d="M733.3,263.5c-.3-1-.6-1.9-1-2.9C732.7,261.6,733,262.6,733.3,263.5Z" transform="translate(0.1)" fill="#ddd"/><path d="M734.5,267.2c-.4-1.2-.8-2.5-1.2-3.7A31.64,31.64,0,0,1,734.5,267.2Z" transform="translate(0.1)" fill="#ddd"/><path d="M656.6,180.1l1.1.6,1.1.7,1.2.7,1.2.7,2.2,1.3,1.1.7,1.1.7,1.1.7,1.1.7c.3.2.7.4,1,.6l1,.7,1.1.7,1.1.7c.7.5,1.4.9,2,1.4l1,.7,1,.7,3,2.1,1,.7,1,.7c74.7,56.1,76.9,134.1,6.5,191.2-5.5,4.5-16.7,5.1-23.5,1.2-5.2-3-6-7.7-2-11.3,56.8-46.1,60.7-106.9,12.4-154.9-4-3.9-5.2-4.9-6.4-6-5.6-4.8-6.2-5.3-6.9-5.8-16.5-11.9-16.8-12.1-17.2-12.3-8.1-5-8.5-5.2-8.8-5.4L634,192c-8.6-4.7-8.9-4.9-9.3-5-21.1-9.7-21.9-10.1-22.8-10.4-10-3.8-11.5-4.4-13-4.9-88-29.5-192.9-27-271.7,5.8-6.6,2.5-14.7,2.1-20-.9-6.8-3.9-5.8-10.4,1.9-13.6,81.5-34,187.9-39.1,277.2-15.4l1.4.4,1.4.4,4.1,1.1,1.4.4,1.4.4c1.4.4,2.8.8,4.1,1.2l1.3.4,1.4.4,1.4.4,2.6.8,1.4.4,1.4.5,1.4.5,1.3.4,1.3.5,4,1.4,1.3.5,1.3.5,1.3.5,1.3.5,2.6,1,1.3.5,3.9,1.6,2.5,1,2.6,1.1,1.3.6c5.5,2.5,5.9,2.6,6.3,2.8l1.2.5a6.66,6.66,0,0,1,1.2.6l1.2.6,2.5,1.2,2.3,1.1,2.5,1.2,1.2.6,1.1.6,1.2.6,1.2.6,1.2.6,2.3,1.3,1.2.6,1.2.7,1.2.7Z" transform="translate(0.1)" opacity="0.69" fill="url(#ak)" style="isolation:isolate"/><path d="M738.4,290.5c0-1-.1-2.1-.2-3.1C738.3,288.5,738.3,289.5,738.4,290.5Z" transform="translate(0.1)" fill="#ddd"/><path d="M738.4,294.3v2.9A28.05,28.05,0,0,0,738.4,294.3Z" transform="translate(0.1)" fill="#ddd"/><path d="M737.1,310.4c.3-2,.6-3.9.8-5.9C737.7,306.5,737.4,308.4,737.1,310.4Z" transform="translate(0.1)" fill="#ddd"/><path d="M736.5,313.3c.2-1,.4-1.9.6-2.9C736.9,311.3,736.7,312.3,736.5,313.3Z" transform="translate(0.1)" fill="#ddd"/><path d="M733.8,323.7c.4-1.2.7-2.3,1-3.5C734.5,321.3,734.2,322.5,733.8,323.7Z" transform="translate(0.1)" fill="#ddd"/><path d="M728.6,336.8l1.5-3.3Z" transform="translate(0.1)" fill="#ddd"/><path d="M723.5,346.5c.6-1,1.2-2.1,1.8-3.2C724.7,344.4,724.1,345.5,723.5,346.5Z" transform="translate(0.1)" fill="#ddd"/><path d="M707.6,367.9l2.5-2.8Z" transform="translate(0.1)" fill="#ddd"/><path d="M695.6,380c1-1,2.1-1.9,3.1-2.9C697.7,378.1,696.6,379.1,695.6,380Z" transform="translate(0.1)" fill="#818181"/><path d="M688.9,385.8c1.1-1,2.3-1.9,3.4-2.9C691.2,383.9,690.1,384.9,688.9,385.8Z" transform="translate(0.1)" fill="#818181"/><path d="M688.9,385.8a21,21,0,0,1-1.7,1.4c-.2.2-.5.3-.7.5Z" transform="translate(0.1)" fill="#ddd"/><path d="M686.5,387.8a227,227,0,0,1-28.7,19.6c-108,62.8-283.6,62.8-392.3,0s-109.3-164.5-1.3-227.3a296.88,296.88,0,0,1,34.4-17c-7.6,3.3-8.4,9.6-1.7,13.5,5.2,3,13.4,3.4,19.5,1.1a250.82,250.82,0,0,0-30.3,15c-96,55.8-95.5,146.2,1.1,202s252.7,55.8,348.7,0a213.52,213.52,0,0,0,25.8-17.6c-4,3.5-3.3,8.2,2,11.3C670.3,392.2,680.8,391.8,686.5,387.8Z" transform="translate(0.1)" opacity="0.21" fill="url(#al)" style="isolation:isolate"/><path d="M718.9,234.8c-.6-.9-1.3-1.8-1.9-2.7C717.6,233,718.3,233.9,718.9,234.8Z" transform="translate(0.1)" fill="#ddd"/><path d="M723,241.2c-.5-.8-1-1.6-1.6-2.5C721.9,239.6,722.5,240.4,723,241.2Z" transform="translate(0.1)" fill="#ddd"/><path d="M736.8,277c-.2-1-.4-2.1-.6-3.2A19.85,19.85,0,0,1,736.8,277Z" transform="translate(0.1)" fill="#818181"/><path d="M735.7,317c.3-1.3.6-2.5.8-3.8C736.2,314.5,736,315.8,735.7,317Z" transform="translate(0.1)" fill="#ddd"/><path d="M732.7,326.9c.4-1.1.8-2.2,1.1-3.2C733.5,324.7,733.1,325.8,732.7,326.9Z" transform="translate(0.1)" fill="#ddd"/><path d="M731.4,330.3c.4-1.1.9-2.2,1.3-3.4C732.3,328,731.9,329.1,731.4,330.3Z" transform="translate(0.1)" fill="#ddd"/><path d="M716.9,356.3c.8-1.2,1.7-2.3,2.5-3.5C718.6,354,717.8,355.2,716.9,356.3Z" transform="translate(0.1)" fill="#ddd"/><path d="M714.3,359.9c.9-1.2,1.8-2.3,2.6-3.5C716.1,357.5,715.2,358.7,714.3,359.9Z" transform="translate(0.1)" fill="#ddd"/><path d="M701.8,374l2.9-2.9A39.67,39.67,0,0,1,701.8,374Z" transform="translate(0.1)" fill="#818181"/><path d="M698.7,377.1c1.1-1,2.1-2,3.1-3.1C700.8,375.1,699.8,376.1,698.7,377.1Z" transform="translate(0.1)" fill="#ddd"/><path d="M878,268.5l-.8-.8Z" transform="translate(0.1)" fill="#ddd"/><path d="M878.6,269.1l-.5-.5Z" transform="translate(0.1)" fill="#ddd"/><path d="M879.3,269.8c-.2-.3-.5-.5-.7-.8A2.7,2.7,0,0,0,879.3,269.8Z" transform="translate(0.1)" fill="#818181"/><path d="M879.8,270.5c-.2-.2-.3-.4-.5-.6C879.5,270,879.6,270.2,879.8,270.5Z" transform="translate(0.1)" fill="#818181"/><path d="M848.4,253.7l.7.1Z" transform="translate(0.1)" fill="#ddd"/><path d="M842.1,252.4l.8.1Z" transform="translate(0.1)" fill="#ddd"/><path d="M838.6,251.9l1.4.2Z" transform="translate(0.1)" fill="#ddd"/><path d="M838,251.8l.6.1Z" transform="translate(0.1)" fill="#818181"/><path d="M833.8,251.4l1.6.1Z" transform="translate(0.1)" fill="#ddd"/><path d="M833.1,251.4l.8.1Z" transform="translate(0.1)" fill="#818181"/><path d="M831.8,251.3l1.3.1Z" transform="translate(0.1)" fill="#ddd"/><path d="M830.9,251.3h0Z" transform="translate(0.1)" fill="#ddd"/><path d="M828.7,251.2h0Z" transform="translate(0.1)" fill="#818181"/><path d="M827.5,251.2h0Z" transform="translate(0.1)" fill="#ddd"/><path d="M826.6,251.1Z" transform="translate(0.1)" fill="#ddd"/><path d="M823.1,251.2h0Z" transform="translate(0.1)" fill="#ddd"/><path d="M817.3,251.5l1-.1Z" transform="translate(0.1)" fill="#818181"/><path d="M815.2,251.7l1-.1Z" transform="translate(0.1)" fill="#ddd"/><path d="M813.1,251.9l1-.1Z" transform="translate(0.1)" fill="#818181"/><path d="M811.1,252.2l1-.1Z" transform="translate(0.1)" fill="#ddd"/><path d="M810,252.4l1.1-.2Z" transform="translate(0.1)" fill="#818181"/><path d="M805.1,253.3l1.2-.3Z" transform="translate(0.1)" fill="#ddd"/><path d="M800.2,254.5l1-.3Z" transform="translate(0.1)" fill="#ddd"/><path d="M792,257.3a7.84,7.84,0,0,1,1.4-.5A7.84,7.84,0,0,0,792,257.3Z" transform="translate(0.1)" fill="#818181"/><path d="M791.1,257.6l.9-.4-.9.4Z" transform="translate(0.1)" fill="#ddd"/><path d="M835.5,251.6h0Z" transform="translate(0.1)" fill="#818181"/><path d="M835.9,251.6l2.1.2Z" transform="translate(0.1)" fill="#ddd"/><path d="M844.2,252.8l.8.1Z" transform="translate(0.1)" fill="#ddd"/><path d="M804.1,253.5l1-.2Z" transform="translate(0.1)" fill="#818181"/><path d="M803.1,253.7l1-.2Z" transform="translate(0.1)" fill="#818181"/><path d="M799.2,254.8l1-.3Z" transform="translate(0.1)" fill="#ddd"/><path d="M797.3,255.3l.9-.3Z" transform="translate(0.1)" fill="#818181"/><path d="M795.4,256l.9-.3Z" transform="translate(0.1)" fill="#818181"/><path d="M794.5,256.3l.9-.3Z" transform="translate(0.1)" fill="#818181"/><path d="M880.4,271.2a5,5,0,0,0-.7-.8A5,5,0,0,1,880.4,271.2Z" transform="translate(0.1)" fill="#ddd"/><path d="M881.5,272.6c-.2-.3-.4-.5-.6-.8A5.55,5.55,0,0,1,881.5,272.6Z" transform="translate(0.1)" fill="#ddd"/><path d="M884.5,277.8c-.1-.2-.1-.4-.2-.5A.76.76,0,0,0,884.5,277.8Z" transform="translate(0.1)" fill="#818181"/><path d="M884.8,278.7l-.3-.9A9.44,9.44,0,0,0,884.8,278.7Z" transform="translate(0.1)" fill="#ddd"/><path d="M885,279.3c-.1-.2-.1-.4-.2-.6A1.42,1.42,0,0,1,885,279.3Z" transform="translate(0.1)" fill="#ddd"/><path d="M885.3,280.2c-.1-.3-.2-.5-.3-.8A6.89,6.89,0,0,1,885.3,280.2Z" transform="translate(0.1)" fill="#ddd"/><path d="M868.4,261.3l.2.1.2.1.3.1.3.1.5.3.2.1.2.2.2.1.2.2.2.1.2.1.2.2.2.2.4.3.2.2.2.2.7.5.2.1.2.2c16.2,12.1,16.6,29,1.4,41.3a5.16,5.16,0,0,1-5.1.3c-1.1-.6-1.3-1.7-.4-2.4,12.3-10,13.1-23.1,2.7-33.5-.9-.8-1.1-1.1-1.4-1.3l-1.5-1.3-3.7-2.6-1.9-1.2-.2-.1-2-1.1c-4.5-2.1-4.7-2.2-4.9-2.3-2.2-.8-2.5-1-2.8-1.1-19-6.4-41.7-5.8-58.8,1.3a5.36,5.36,0,0,1-4.3-.2c-1.5-.8-1.3-2.2.4-2.9,17.6-7.3,40.6-8.5,59.9-3.3l.3.1.3.1.9.3.3.1.3.1.9.3.3.1.3.1.3.1.6.2.3.1.3.1.3.1.3.1.3.1.9.3.3.1.3.1.3.1.3.1.5.2.3.1.8.3.5.2.6.2.3.1,1.3.6.3.1.3.1.3.1.5.3.5.3.5.3.3.1.2.1.3.1.3.1.3.1.5.3.3.1.3.1.3.2Z" transform="translate(0.1)" fill="url(#am)"/><path d="M886.1,285.2v0Z" transform="translate(0.1)" fill="#ddd"/><path d="M885.8,289.5c.1-.4.1-.9.2-1.3A5.85,5.85,0,0,1,885.8,289.5Z" transform="translate(0.1)" fill="#ddd"/><path d="M885.7,290.1c0-.2.1-.4.1-.6C885.8,289.7,885.7,289.9,885.7,290.1Z" transform="translate(0.1)" fill="#ddd"/><path d="M885.1,292.3a2.35,2.35,0,0,0,.2-.8A1.88,1.88,0,0,1,885.1,292.3Z" transform="translate(0.1)" fill="#ddd"/><path d="M884,295.2c.1-.2.2-.5.3-.7C884.2,294.7,884.1,295,884,295.2Z" transform="translate(0.1)" fill="#ddd"/><path d="M882.9,297.3c.1-.2.3-.5.4-.7A1.61,1.61,0,0,0,882.9,297.3Z" transform="translate(0.1)" fill="#ddd"/><path d="M879.5,301.9a2.65,2.65,0,0,0,.5-.6A2.65,2.65,0,0,0,879.5,301.9Z" transform="translate(0.1)" fill="#ddd"/><path d="M876.8,304.5l.7-.6Z" transform="translate(0.1)" fill="#818181"/><path d="M875.4,305.8l.7-.6Z" transform="translate(0.1)" fill="#818181"/><path d="M875.4,305.8l-.4.3-.2.1Z" transform="translate(0.1)" fill="#ddd"/><path d="M874.9,306.2a42.25,42.25,0,0,1-6.2,4.2c-23.3,13.6-61.3,13.6-84.8,0s-23.6-35.6-.3-49.1a65.27,65.27,0,0,1,7.5-3.7c-1.6.7-1.8,2.1-.4,2.9a4.77,4.77,0,0,0,4.2.2,57.25,57.25,0,0,0-6.6,3.2c-20.8,12.1-20.6,31.6.3,43.7s54.7,12.1,75.4,0a50.21,50.21,0,0,0,5.6-3.8c-.9.8-.7,1.8.4,2.4A4.78,4.78,0,0,0,874.9,306.2Z" transform="translate(0.1)" fill="#fff" opacity="0.57" style="isolation:isolate"/><path d="M881.9,273.1l-.4-.6Z" transform="translate(0.1)" fill="#ddd"/><path d="M882.8,274.5a2.19,2.19,0,0,0-.3-.5C882.5,274.2,882.7,274.3,882.8,274.5Z" transform="translate(0.1)" fill="#ddd"/><path d="M885.8,282.3c0-.2-.1-.5-.1-.7A2,2,0,0,0,885.8,282.3Z" transform="translate(0.1)" fill="#818181"/><path d="M885.5,290.9c.1-.3.1-.5.2-.8C885.6,290.4,885.6,290.7,885.5,290.9Z" transform="translate(0.1)" fill="#ddd"/><path d="M884.9,293a1.85,1.85,0,0,0,.2-.7A6.37,6.37,0,0,1,884.9,293Z" transform="translate(0.1)" fill="#ddd"/><path d="M884.6,293.8a4.88,4.88,0,0,1,.3-.7A4.88,4.88,0,0,0,884.6,293.8Z" transform="translate(0.1)" fill="#ddd"/><path d="M881.5,299.5a3.51,3.51,0,0,0,.5-.8A2.18,2.18,0,0,0,881.5,299.5Z" transform="translate(0.1)" fill="#ddd"/><path d="M880.9,300.2c.2-.3.4-.5.6-.8C881.3,299.7,881.1,299.9,880.9,300.2Z" transform="translate(0.1)" fill="#ddd"/><path d="M878.2,303.3l.6-.6Z" transform="translate(0.1)" fill="#818181"/><path d="M877.5,303.9l.7-.7Z" transform="translate(0.1)" fill="#ddd"/><path d="M775.3,214.1V198.4l-8.9,1.6a10.81,10.81,0,0,0-1.8-1.1L571.2,87.2c-14.1-8.2-37.1-8.2-51.1,0l-395.8,230-15.2,1.9s-.5,17.6,1.5,21.5h0a22,22,0,0,0,9.2,8.9L313.3,461.2c14.1,8.2,37.1,8.2,51.1,0L764.9,228.5c6.8-4,10.3-9.1,10.5-14.3h0Z" transform="translate(0.1)" fill="#1e1e1e"/><path d="M708.6,251.1c1.5-.8,2.7-.1,2.7,1.5a6.07,6.07,0,0,1-2.6,4.6l-27.8,16c-1.5.8-2.6.2-2.7-1.5a5.91,5.91,0,0,1,2.6-4.6Z" transform="translate(0.1)" fill="url(#an)"/><path d="M709.8,250.7c.9,0,1.5.7,1.5,1.9a6.07,6.07,0,0,1-2.6,4.6l-27.8,16a5.64,5.64,0,0,1-1.2.4c-.9,0-1.5-.7-1.5-1.9a5.91,5.91,0,0,1,2.6-4.6l27.8-16a3.37,3.37,0,0,1,1.2-.4m0-.5h0a4.19,4.19,0,0,0-1.5.4l-27.8,16a6.41,6.41,0,0,0-2.9,5c0,1.4.8,2.4,2,2.4a4.19,4.19,0,0,0,1.5-.4l27.8-16a6.41,6.41,0,0,0,2.9-5c0-1.4-.8-2.4-2-2.4Z" transform="translate(0.1)"/><path d="M709.3,251.9c1.5-.9,2.6-.2,2.7,1.5a6.07,6.07,0,0,1-2.6,4.6l-27.8,16c-1.5.9-2.6.2-2.6-1.5a5.91,5.91,0,0,1,2.6-4.6Z" transform="translate(0.1)" fill="url(#ao)"/><path d="M660.7,279.4c1.5-.9,2.6-.2,2.6,1.5a6.07,6.07,0,0,1-2.6,4.6l-15.8,9c-1.5.8-2.6.2-2.6-1.5a5.91,5.91,0,0,1,2.6-4.6Z" transform="translate(0.1)" fill="url(#ap)"/><path d="M661.9,279c.9,0,1.5.7,1.5,1.9a5.91,5.91,0,0,1-2.6,4.6l-15.8,9a5.64,5.64,0,0,1-1.2.4c-.9,0-1.5-.7-1.5-1.9a5.91,5.91,0,0,1,2.6-4.6l15.8-9a2.84,2.84,0,0,1,1.2-.4m0-.5h0a4.19,4.19,0,0,0-1.5.4l-15.8,9a6.41,6.41,0,0,0-2.9,5c0,1.4.8,2.4,2,2.4a4.19,4.19,0,0,0,1.5-.4l15.8-9a6.41,6.41,0,0,0,2.9-5c0-1.5-.8-2.4-2-2.4Z" transform="translate(0.1)"/><path d="M661.5,280.2c1.5-.8,2.6-.2,2.7,1.5a5.73,5.73,0,0,1-2.6,4.5l-15.8,9c-1.5.9-2.6.2-2.7-1.5a5.91,5.91,0,0,1,2.6-4.6Z" transform="translate(0.1)" fill="url(#aq)"/><path d="M731.9,247.7l32.9-19.1c6.8-4,10.3-9.1,10.5-14.3h0V198.4l-8.9,1.6a10.81,10.81,0,0,0-1.8-1.1L737.1,183h-5.3v64.7Z" transform="translate(0.1)" fill="url(#ar)"/><path d="M383.2,399.1H291.8V449l21.4,12.4c14.1,8.2,37.1,8.2,51.1,0l18.9-11Z" transform="translate(0.1)" fill="url(#as)"/><path d="M764.7,184c14.2,8.2,14.2,21.5.1,29.6L364.3,446.3c-14.1,8.2-37,8.2-51.1,0L119.7,334.6c-14.1-8.2-14.2-21.5-.2-29.6L520,72.3c14-8.2,37-8.2,51.1,0Z" transform="translate(0.1)" fill="url(#at)"/><path d="M764.7,184,643.3,113.9c-5.5,44.8.3,102.1,50.7,140.8l70.8-41.1C778.9,205.4,778.8,192.1,764.7,184Z" transform="translate(0.1)" fill="url(#au)"/><path d="M338.8,448.3a40.29,40.29,0,0,1-19.6-4.7L125.7,331.8c-5.5-3.2-8.5-7.5-8.5-12.1s3-8.8,8.4-12L526,75.1c5.2-3,12.2-4.7,19.6-4.7a40.29,40.29,0,0,1,19.6,4.7l54.6,31.5a4.09,4.09,0,0,1,2.2,2.9,3.66,3.66,0,0,1-.9,2.8l-4.5,5a1.85,1.85,0,0,0-.5,1.2,2.48,2.48,0,0,0,1.4,1.6l63.2,36.5a9,9,0,0,0,4.2,1,8.63,8.63,0,0,0,2.8-.4l8.7-2.6a10.63,10.63,0,0,1,7.6.7l54.6,31.5c5.5,3.2,8.5,7.5,8.5,12.1s-3,8.8-8.4,12L358.3,443.6C353.1,446.6,346.1,448.3,338.8,448.3Z" transform="translate(0.1)" fill="url(#av)"/><path d="M759.6,187.5c10.5,6.1,10.6,15.9.1,22L359.2,442.2c-10.5,6.1-27.5,6.1-38,0L127.7,330.5c-10.5-6.1-10.6-15.9-.1-22L528.1,75.7c10.5-6.1,27.5-6.1,38,0l54.6,31.5c1.8,1,2.2,2.6,1,3.9l-4.5,5c-1.4,1.5-.9,3.4,1.3,4.6l63.2,36.5a10.59,10.59,0,0,0,8,.7l8.7-2.6a9.18,9.18,0,0,1,6.7.6Z" transform="translate(0.1)" fill="url(#aw)"/><path d="M666,139.2a.72.72,0,0,1,.5.9.82.82,0,0,1-.5.5,2.55,2.55,0,0,1-2.4,0L640,126.9c-.7-.4-.7-1,0-1.4a2.55,2.55,0,0,1,2.4,0Z" transform="translate(0.1)" fill="url(#ax)"/><path d="M683.2,148c1.3.7,1.2,1.9,0,2.6a4.87,4.87,0,0,1-4.4,0,1.39,1.39,0,0,1-.9-1.7,1.59,1.59,0,0,1,.9-.9A4.87,4.87,0,0,1,683.2,148Z" transform="translate(0.1)" fill="url(#ay)"/><path d="M636,297.1c1.2,2-74.3,48.1-96.1,61.3s-135.6,74.8-136.8,72.8,110.8-66.7,132.5-79.9S634.9,295.2,636,297.1Z" transform="translate(0.1)" fill="url(#az)"/><polygon points="993.7 374.1 989.3 376.7 887.7 318 892.1 315.5 993.7 374.1" fill="#fff" opacity="0.44" style="isolation:isolate"/><polygon points="883.9 344 879.5 346.5 859 334.7 863.4 332.1 883.9 344" fill="#fff" opacity="0.44" style="isolation:isolate"/><polygon points="935.4 352 931 354.6 877.7 323.8 882.1 321.3 935.4 352" fill="#fff" opacity="0.44" style="isolation:isolate"/><polygon points="937.5 364 933 366.5 868.4 329.2 872.9 326.7 937.5 364" fill="#fff" opacity="0.44" style="isolation:isolate"/><path d="M820.5,271.9l-1.5.9-7.4-4.3-5.6,2.6,2.1,1.2c4.8,2.8,4.8,5,2,6.6s-6.8,1.7-10.7-.6c-2.3-1.4-3.7-3.1-3.7-4.5l2.1-.3c0,1.2,1,2.7,3.1,3.9a7.56,7.56,0,0,0,7.5.5c1.9-1.1,2.1-2.7-2-5l-3.4-2,8.8-4.2Z" transform="translate(0.1)" fill="#fff"/><path d="M846.4,295.5c2.2,1.3,1.9,3.1-.7,4.6a8.15,8.15,0,0,1-8,.4c-2.1-1.2-1.9-3.1.7-4.6A8.15,8.15,0,0,1,846.4,295.5Zm-7.7,4.4a5.75,5.75,0,0,0,5.8-.5c2.1-1.2,2.3-2.5.8-3.4a5.75,5.75,0,0,0-5.8.5c-2,1.3-2.3,2.5-.8,3.4" transform="translate(0.1)" fill="#fff"/><polygon points="853.8 291.1 855.1 291.9 828.1 294.8 826.8 294 853.8 291.1" fill="#fff"/><path d="M830.9,277.8c3.7,2.2,3.4,5.5-1.7,8.5s-10.9,3.2-14.6,1-3.4-5.5,1.7-8.4C821.5,275.8,827.2,275.6,830.9,277.8Zm-14.8,8.6c2.8,1.6,7.1,1.4,11.4-1.1s4.7-5,1.9-6.6-7.1-1.4-11.4,1.1-4.7,5-1.9,6.6" transform="translate(0.1)" fill="#fff"/><path d="M843.3,290a8.15,8.15,0,0,1-8,.4c-2.2-1.3-1.9-3.1.7-4.6a8.15,8.15,0,0,1,8-.4C846.2,286.6,846,288.5,843.3,290Zm-6.1-3.5c-2.1,1.2-2.3,2.5-.8,3.4s3.7.7,5.8-.5,2.3-2.5.8-3.4-3.7-.7-5.8.5" transform="translate(0.1)" fill="#fff"/><path d="M431.7,322.6c7.9,4.5,7.9,11.9.1,16.4l-74.9,43.5c-7.8,4.5-20.5,4.5-28.4,0L122.6,263.7c-7.8-4.5-7.9-11.9-.1-16.4l74.9-43.5c7.8-4.5,20.5-4.5,28.4,0Z" transform="translate(0.1)" fill="url(#ba)"/><path d="M486.9,214.7c5.6,3.2,5.6,8.5.1,11.7l-53.3,31.1c-5.6,3.2-14.6,3.2-20.3,0L266.5,172.7c-5.6-3.2-5.6-8.5-.1-11.7l53.4-31c5.6-3.2,14.6-3.2,20.2,0Z" transform="translate(0.1)" fill="url(#bb)"/><polygon points="362.8 355 356.7 358.6 286.4 318 292.5 314.5 362.8 355" fill="#fff"/><polygon points="236.3 243 230.2 246.6 197.6 227.7 203.7 224.2 236.3 243" fill="#fff"/><polygon points="279.5 252.5 273.5 256.1 210.9 220 217 216.4 279.5 252.5" fill="#fff"/><polygon points="233.3 297.6 227.2 301.2 149 256 155 252.4 233.3 297.6" fill="#fff"/><polygon points="282.7 308.8 276.7 312.4 163.9 247.3 170 243.8 282.7 308.8" fill="#fff"/><polygon points="329.4 319.9 323.3 323.4 177.7 239.3 183.7 235.8 329.4 319.9" fill="#fff"/><polygon points="344.3 169 338.2 172.6 305.6 153.7 311.7 150.2 344.3 169" fill="#fff"/><polygon points="387.5 178.5 381.5 182.1 318.9 146 325 142.4 387.5 178.5" fill="#fff"/><polygon points="437.4 245.9 431.3 249.4 285.7 165.3 291.7 161.8 437.4 245.9" fill="#fff"/><polygon points="376.5 347.1 370.4 350.6 330 327.3 336.1 323.7 376.5 347.1" fill="#fff"/><polygon points="666.8 236 660.7 239.6 590.4 199 596.5 195.5 666.8 236" fill="#fff"/><polygon points="540.3 124 534.3 127.6 501.6 108.7 507.7 105.2 540.3 124" fill="#fff"/><polygon points="583.5 133.5 577.4 137.1 514.9 101 521 97.4 583.5 133.5" fill="#fff"/><polygon points="537.3 178.6 531.2 182.2 453 137 459 133.4 537.3 178.6" fill="#fff"/><polygon points="586.8 189.8 580.7 193.4 467.9 128.3 474 124.8 586.8 189.8" fill="#fff"/><polygon points="633.4 200.9 627.3 204.4 481.7 120.3 487.7 116.8 633.4 200.9" fill="#fff"/><polygon points="680.5 228.1 674.4 231.6 634 208.3 640.1 204.7 680.5 228.1" fill="#fff"/><g opacity="0.25"><path d="M593.9,477c4.6,2.6,4.6,6.9,0,9.5l-58.3,33.9c-4.5,2.6-11.9,2.6-16.5,0l-58.6-33.9c-4.6-2.6-4.6-6.9,0-9.5l58.3-33.9c4.5-2.6,11.9-2.6,16.5,0Z" transform="translate(0.1)" fill="url(#bc)"/></g><path d="M605.3,463.4v.1l-.6,1.2-.2.2a12,12,0,0,1-1.1,1.2l-.1.1a14.31,14.31,0,0,1-1.5,1.1l-65,37.8-1.8.9-.5.2c-.4.1-.8.3-1.2.4l-1.3.3c-.4.1-1,.2-1.6.3l-.4.1a16.2,16.2,0,0,1-2.2.1h-.3a16.2,16.2,0,0,1-2.2-.1H525l-2.1-.3-.4-.1c-.6-.2-1.2-.3-1.8-.5l-.3-.1c-.7-.3-1.4-.6-2-.9l-65.5-37.8a7.62,7.62,0,0,1-3.6-3.9,3.89,3.89,0,0,1-.2-1.5v3.5c0,1.9,1.3,3.9,3.8,5.4l65.5,37.8c.6.3,1.2.6,1.9.9h.1l.3.1c.4.1.8.3,1.2.4l.7.2.4.1.3.1a5.07,5.07,0,0,0,1.3.2h1.3c.4,0,.9.1,1.3.1h1.3a7.57,7.57,0,0,0,1.5-.1h.6a3.59,3.59,0,0,0,1.1-.2l.5-.1,1.3-.3c.2-.1.5-.1.7-.2l.5-.2.5-.2a7.57,7.57,0,0,0,1.8-.9L602,471l.2-.1a7.1,7.1,0,0,0,1.4-1l.1-.1.1-.1a6.47,6.47,0,0,0,.8-.9c.1-.1.1-.1.1-.2l.2-.2a.52.52,0,0,0,.2-.4c.1-.2.2-.5.3-.7v-.2a2,2,0,0,0,.1-.5c0-.2.1-.5.1-.7V462C605.5,462.4,605.4,462.9,605.3,463.4Z" transform="translate(0.1)" opacity="0.25" fill="url(#bd)" style="isolation:isolate"/><path d="M601.6,456.7c5.1,2.9,5.1,7.7.1,10.7l-65,37.8c-5.1,2.9-13.3,2.9-18.4,0l-65.5-37.8c-5.1-2.9-5.1-7.7-.1-10.7l65-37.8c5.1-2.9,13.3-2.9,18.4,0Z" transform="translate(0.1)" fill="url(#be)"/><path d="M534.5,434.9c.9.5,1.6,1,2.4,1.5l.6.3c.7.4,1.2,1,.1,2.5-1.4,2.1-5.1,7.2-5.5,7.7a2.84,2.84,0,0,1-2.1,1.3,15.72,15.72,0,0,1-2.3.4h-1c-1.4.1-2.8.2-4.2.2s-2.6,0-3.2,1.2a17.9,17.9,0,0,0-1.5,9.1,19,19,0,0,0,4,9.6,2.41,2.41,0,0,0,1,1,4.13,4.13,0,0,0,2.2.4c1.5,0,6.8-.3,8.8-.5a3.59,3.59,0,0,1,2.5.3,5.24,5.24,0,0,1,1.1,1c.7.9,3.8,6.3,4.6,7.4s1.2,1.8,1,2.2-2.7,2-6.7,3.1-12.1-.3-14.6-1.5a30.9,30.9,0,0,1-3.2-1.4c-1.8-1-4.3-3.2-9-9.3-7.9-10.4-3-22.7-2.8-23.6a16.21,16.21,0,0,1,4.2-7.7,16.38,16.38,0,0,1,3.5-2.9,29.11,29.11,0,0,1,15-3.5A9.63,9.63,0,0,1,534.5,434.9Z" transform="translate(0.1)" fill="#fff"/><g opacity="0.13"><path d="M800.4,145.1v7.8a6,6,0,0,1-6,6,6.41,6.41,0,0,1-3-.8l-206-119a6,6,0,0,1-3-5.2V26.1a6,6,0,0,1,6-6,6.41,6.41,0,0,1,3,.8l206,119A6.22,6.22,0,0,1,800.4,145.1Z" transform="translate(0.1)" fill="url(#bf)"/></g><path d="M768.3,127.4v7.8a6,6,0,0,1-6,6,6.41,6.41,0,0,1-3-.8L584.6,39.1a6,6,0,0,1-3-5.2V26.1a6,6,0,0,1,6-6,6.41,6.41,0,0,1,3,.8L765.3,122.2A6.22,6.22,0,0,1,768.3,127.4Z" transform="translate(0.1)" fill="url(#bg)"/><g opacity="0.62"><path d="M847.2,178.1a1.92,1.92,0,0,1,.9,1.6V196c0,.6-.4.8-.9.5l-20.7-11.9a1.92,1.92,0,0,1-.9-1.6V166.7c0-.6.4-.8.9-.5Z" transform="translate(0.1)" fill="#f9f9f9"/></g><g opacity="0.27"><path d="M862.6,212.3a2.2,2.2,0,0,1,.9,1.6v16.3c0,.6-.4.8-.9.5l-20.7-11.9a1.92,1.92,0,0,1-.9-1.6V200.9c0-.6.4-.8,1-.5Z" transform="translate(0.1)" fill="#fff"/></g><path d="M31.5,222.2a1.92,1.92,0,0,0-.9,1.6v16.3c0,.6.4.8.9.5l20.6-11.9a1.92,1.92,0,0,0,.9-1.6V210.8c0-.6-.4-.8-.9-.5Z" transform="translate(0.1)" fill="#f9f9f9"/><path d="M16.1,256.4a1.92,1.92,0,0,0-.9,1.6v16.3c0,.6.4.8.9.5l20.6-11.9a1.92,1.92,0,0,0,.9-1.6V245c0-.6-.4-.8-.9-.5Z" transform="translate(0.1)" fill="#fff"/><path d="M116.4,64.8a2.2,2.2,0,0,0-.9,1.6V82.7c0,.6.4.8.9.5L137,71.3a2.2,2.2,0,0,0,.9-1.6V53.4c0-.6-.4-.8-.9-.5Z" transform="translate(0.1)" fill="#f9f9f9"/><g opacity="0.27"><path d="M101,99a2.2,2.2,0,0,0-.9,1.6V117c0,.6.4.8.9.5l20.7-11.9a1.92,1.92,0,0,0,.9-1.6V87.6c0-.6-.4-.8-.9-.5Z" transform="translate(0.1)" fill="#fff"/></g><path d="M781,168.8a5.7,5.7,0,1,1-5.7-5.7h0A5.76,5.76,0,0,1,781,168.8Z" transform="translate(0.1)" fill="url(#bh)"/><path d="M418,98.8a4.7,4.7,0,1,1-4.7-4.7,4.69,4.69,0,0,1,4.7,4.7Z" transform="translate(0.1)" fill="url(#bi)"/><path d="M268.4,118.8a5.08,5.08,0,0,0-2.3,4c0,1.5,1.1,2.1,2.3,1.4a4.83,4.83,0,0,0,2.3-4C270.8,118.6,269.7,118,268.4,118.8Z" transform="translate(0.1)" fill="#fff"/><path d="M275.2,116.7v1.5a15.36,15.36,0,0,1-6.8,11.1c-3.8,2.2-6.9.4-6.9-3.9a15.17,15.17,0,0,1,6.8-11.8C271.9,111.6,274.9,112.9,275.2,116.7Zm-6.8,11.1a12,12,0,0,0,5.5-9.5c0-3.5-2.5-4.9-5.5-3.1a12.14,12.14,0,0,0-5.5,9.5c0,3.4,2.5,4.9,5.5,3.1" transform="translate(0.1)" fill="#fff"/><path d="M343.5,50.4V66.6l-27,15.6-9.3,16-32.1,18.5v1.5l32.6-18.8,9.3-16,27.8-16.1V49.6Z" transform="translate(0.1)" fill="#fff"/><polygon points="326 6.8 330.6 14.9 337.5 10.9 333 2.8 326 6.8" fill="#fff"/><polygon points="313.5 14 318.1 22.1 325.1 18.1 320.5 9.9 313.5 14" fill="#fff"/><polygon points="301.1 21.2 305.6 29.3 312.6 25.3 308.1 17.1 301.1 21.2" fill="#fff"/><polygon points="352.2 26.2 347.1 33 347.2 39.9 397.7 10.8 397.7 0 352.2 26.2" fill="#fff"/><path d="M276.2,51.2a5.08,5.08,0,0,0-2.3,4c0,1.5,1,2.1,2.3,1.3a5.08,5.08,0,0,0,2.3-4C278.5,51.1,277.5,50.4,276.2,51.2Z" transform="translate(0.1)" fill="#fff"/><path d="M283,49.2v1.6a15.17,15.17,0,0,1-6.8,11c-3.8,2.2-6.9.4-6.9-3.9a14.9,14.9,0,0,1,6.8-11.8C279.7,44,282.7,45.4,283,49.2Zm-6.8,11a12.14,12.14,0,0,0,5.5-9.5c0-3.5-2.5-4.9-5.5-3.2a12.3,12.3,0,0,0-5.5,9.5c0,3.5,2.5,5,5.5,3.2" transform="translate(0.1)" fill="#fff"/><path d="M460.6,3.1c3.8-2.2,6.9-.4,6.9,3.9a14.9,14.9,0,0,1-6.8,11.8c-3.5,2.1-6.5.6-6.8-3.2V14A14.93,14.93,0,0,1,460.6,3.1Zm0,14.2a12.3,12.3,0,0,0,5.5-9.5c0-3.5-2.5-4.9-5.5-3.1a12.14,12.14,0,0,0-5.5,9.5c0,3.5,2.5,4.9,5.5,3.1" transform="translate(0.1)" fill="#fff"/><polygon points="417.2 40.5 417.2 43.3 449.2 24.7 449.2 21.9 417.2 40.5" fill="#fff"/><polygon points="438.4 35.3 439.6 37.4 449.3 31.8 449.3 29 438.4 35.3" fill="#fff"/><path d="M283,49.2v1.6l54-31.2.1,35.3,6.5-3.8v-.7l1.3-.8v.8l36.6-21.2,24.6,14,47.7-27.6V14L406.6,41.3,382,27.3,338.3,52.5l-.1-35.3Z" transform="translate(0.1)" fill="#fff"/><path d="M460.6,8.3a5.08,5.08,0,0,0-2.3,4c0,1.5,1,2.1,2.3,1.4a5.08,5.08,0,0,0,2.3-4C463,8.1,461.9,7.6,460.6,8.3Z" transform="translate(0.1)" fill="#fff"/></svg>