<svg xmlns="http://www.w3.org/2000/svg" viewBox="0 0 1004.32 368.08"><title>sx-1</title><text transform="translate(286.45 356.62)" font-size="43.24" font-family="Montserrat-SemiBold, Montserrat" font-weight="600" letter-spacing="0.2em">THE SMA<tspan x="263.37" y="0" letter-spacing="0.19em">R</tspan><tspan x="303.19" y="0" letter-spacing="0.2em">T CHOICE</tspan></text><path d="M58.45,486.1a4.12,4.12,0,0,0,.37,3.22h0l35-52.28a4.12,4.12,0,0,0-1-5.57l-24.55-18.4a4.1,4.1,0,0,1,2.61-7.38l30.53,1.07a4.11,4.11,0,0,0,4-2.79l11.14-33.19a4.1,4.1,0,0,1,7.79.06l10.12,31.7a4.11,4.11,0,0,0,3.67,2.85l23.75,1.38a4.08,4.08,0,0,0,2.88-1l15.53-13.1a4.1,4.1,0,0,0-2.68-7.24l-24.74.24a4.11,4.11,0,0,1-3.93-2.82l-25.72-77.73a2.83,2.83,0,0,0-5.38,0L92.16,382.49a4.1,4.1,0,0,1-3.89,2.81H10.79a4.1,4.1,0,0,0-2.44,7.4l61.72,45.63a4.11,4.11,0,0,1,1.49,4.48Z" transform="translate(-6.68 -303.21)"/><path d="M166.89,441.77l68.52-69.09c3.54-3.57-1.22-9.15-5.3-6.22l-41,29.37-.24.19-77.6,65-.23.21L36.65,533.68c-3.64,3.54,1.14,9.24,5.26,6.26l33.48-24.17,66.52-50.53a4.1,4.1,0,0,1,5.2.2L163.55,480a1.54,1.54,0,0,1,.19.17l26.72,26.73a4.11,4.11,0,0,0,6.43-5L188.61,488l-22.42-41.34A4.09,4.09,0,0,1,166.89,441.77Z" transform="translate(-6.68 -303.21)"/><text transform="translate(211.84 265.37)" font-size="43.24" font-family="Montserrat-Regular, Montserrat" letter-spacing="1.62em">SO<tspan x="203.31" y="0" letter-spacing="1.61em">L</tspan><tspan x="298.44" y="0" letter-spacing="1.61em">U</tspan><tspan x="402.3" y="0">TION</tspan></text><path d="M625.35,470.08V430.61c23.43,0,45.37.69,67.21-.44,6.06-.31,11.84-6,17.75-9.25-6.06-3.57-12-10-18.2-10.22-26.48-1.12-53.19-2.18-79.52.13-22.22,1.94-31.36-9.46-39.66-30h80.66c13.9,0,27.8-.05,41.69,0,25.82.15,39.26,8,45.11,26.35,6.3,19.67.36,34.39-21.89,51.34l46.28,39.84c-22.24,5.93-38.06.06-52.9-14.11-15.15-14.46-29.72-32.9-57.24-22.36q-.84,16.56-1.89,37.22c-22.29,1.11-45.16,8.35-59.73-17.81-2.21-4-10.48-6.05-16.08-6.34-16.39-.83-32.88.45-49.25-.54-17.42-1.05-30.63,2.13-41.75,18.3-4.87,7.08-20.15,7-30.71,10.13l-3.06-5.17c26.22-36.82,51.83-74.1,79-110.2,8.82-11.72,29.64-7.64,39,6.15,17.28,25.57,34,51.53,50.91,77.33Zm-54.81-18.33-23.18-35.19-25.24,35.19Z" transform="translate(-6.68 -303.21)"/><path d="M523.43,382.47c-15.63,44.2-52.11,22.35-80.77,30.58v86.57H411.2V412.09H328.72c7.82,11.32,14,21.06,21,30.12,10.55,13.67,14.32,28.46,6.65,44.23-7.33,15.09-21.92,14.72-36.15,14.63-33.14-.21-66.29-.07-100.36-.07,28.32-35.35,67.17-23.69,105.68-26.65-3.05-7.06-4.84-12.47-7.61-17.34-4.65-8.2-10.92-15.61-14.74-24.14-14.18-31.6-2.15-50.38,31.68-50.39C397.23,382.46,459.63,382.47,523.43,382.47Z" transform="translate(-6.68 -303.21)"/><path d="M764.78,443c2.11-1.86,4.09-5.12,6.35-5.32a155.14,155.14,0,0,1,23-.1c2,.12,3.75,2.66,5.63,4.08-1.75,1.53-3.44,4.29-5.27,4.38-9,.46-18.08.21-27.13.21Z" transform="translate(-6.68 -303.21)"/><path d="M771.17,379.59a1.38,1.38,0,0,0,.32,1.37c.58.78,1.29,1.45,1.93,2.18,1.13,1.28,2.34,2.48,3.57,3.65,2.44,2.3,5,4.46,7.37,6.84l15.13,15.23,30.26,30.46c.88.9,1.83,1.93,1.83,3.18s-1,2.31-1.86,3.21l-58.79,58.72,37,.05a9.77,9.77,0,0,0,8.92-3.85l32.69-32.15c4.43-4.35,8.91-8.76,12-14.11s4.86-11.83,3.3-17.84-6.29-10.92-10.8-15.39l-39.4-39c-2.47-2.44-4.85-2.79-8.18-2.94q-5.49-.24-11-.42-6.64-.21-13.29-.33c-2.22,0-4.43-.08-6.65-.1C774.4,378.3,771.77,378.14,771.17,379.59Z" transform="translate(-6.68 -303.21)"/><path d="M934.48,379.76c-.89-1.36-3.25-2.19-4.82-2.35-8.3-.86-17.46.81-25.78,1.38-5.83.4-9.85,2.48-14,6.59l-9.42,9.37-15.71,15.63-.71.7s-2.19,2.3,0,3.82l3.11,3.11a35.24,35.24,0,0,0,7.93,5s4.79,2,12.17,1A27,27,0,0,0,899,418.62c6.39-5.39,12.1-12,17.92-18S928.8,389,934.07,382.68A2.29,2.29,0,0,0,934.48,379.76Z" transform="translate(-6.68 -303.21)"/><path d="M935.88,503.77c.15-.7-1.09-1.89-1.69-2.49q-2.13-2.11-4.25-4.25c-2.75-2.76-5.48-5.54-8.23-8.29l-20.6-20.65-2-2a25.75,25.75,0,0,0-19.18-5.24c-6,.82-10.64,4.05-14.93,8.11l-.22.22c-2.63,2.15-1.7,3.83-1.66,3.89,1,1.83,3.54,3.53,5,5l11.1,11.07L890.13,500c2.43,2.43,3.13,4.47,7,4.45,5.57,0,11.15,0,16.72-.05s11.19,0,16.78-.05l4,0C935.44,504.3,935.81,504.09,935.88,503.77Z" transform="translate(-6.68 -303.21)"/></svg>